<svg width="72" height="72" viewBox="0 0 72 72" fill="none" xmlns="http://www.w3.org/2000/svg">
<path d="M58.1091 14.6713L40.5291 6.84133C37.9491 5.70133 34.0491 5.70133 31.4691 6.84133L13.8891 14.6713C9.44906 16.6513 8.78906 19.3513 8.78906 20.7913C8.78906 22.2313 9.44906 24.9313 13.8891 26.9113L31.4691 34.7413C32.7591 35.3113 34.3791 35.6113 35.9991 35.6113C37.6191 35.6113 39.2391 35.3113 40.5291 34.7413L58.1091 26.9113C62.5491 24.9313 63.2091 22.2313 63.2091 20.7913C63.2091 19.3513 62.5791 16.6513 58.1091 14.6713Z" fill="white"/>
<path opacity="0.4" d="M36.0009 51.12C34.8609 51.12 33.7209 50.88 32.6709 50.43L12.4509 41.43C9.36094 40.05 6.96094 36.36 6.96094 32.97C6.96094 31.74 7.95094 30.75 9.18094 30.75C10.4109 30.75 11.4009 31.74 11.4009 32.97C11.4009 34.59 12.7509 36.69 14.2509 37.35L34.4709 46.35C35.4309 46.77 36.5409 46.77 37.5009 46.35L57.7209 37.35C59.2209 36.69 60.5709 34.62 60.5709 32.97C60.5709 31.74 61.5609 30.75 62.7909 30.75C64.0209 30.75 65.0109 31.74 65.0109 32.97C65.0109 36.33 62.6109 40.05 59.5209 41.43L39.3009 50.43C38.2809 50.88 37.1409 51.12 36.0009 51.12Z" fill="white"/>
<path opacity="0.4" d="M36.0009 66.0009C34.8609 66.0009 33.7209 65.7609 32.6709 65.3109L12.4509 56.3109C9.12094 54.8409 6.96094 51.5109 6.96094 47.8509C6.96094 46.6209 7.95094 45.6309 9.18094 45.6309C10.4109 45.6309 11.4009 46.6209 11.4009 47.8509C11.4009 49.7409 12.5109 51.4509 14.2509 52.2309L34.4709 61.2309C35.4309 61.6509 36.5409 61.6509 37.5009 61.2309L57.7209 52.2309C59.4309 51.4809 60.5709 49.7409 60.5709 47.8509C60.5709 46.6209 61.5609 45.6309 62.7909 45.6309C64.0209 45.6309 65.0109 46.6209 65.0109 47.8509C65.0109 51.5109 62.8509 54.8109 59.5209 56.3109L39.3009 65.3109C38.2809 65.7609 37.1409 66.0009 36.0009 66.0009Z" fill="white"/>
</svg>
