<svg width="72" height="72" viewBox="0 0 72 72" fill="none" xmlns="http://www.w3.org/2000/svg">
<path d="M15 43.5V39H19.5V43.5H15Z" fill="white"/>
<path fill-rule="evenodd" clip-rule="evenodd" d="M48 66H12C8.68629 66 6 63.3136 6 60V12C6 8.68629 8.68629 6 12 6H48C51.3136 6 54 8.68629 54 12V60C54 63.3136 51.3136 66 48 66ZM27 19.5C27 18.6715 27.6715 18 28.5 18H46.5C47.3284 18 48 18.6715 48 19.5C48 20.3285 47.3284 21 46.5 21H28.5C27.6715 21 27 20.3285 27 19.5ZM28.5 24C27.6715 24 27 24.6716 27 25.5C27 26.3284 27.6715 27 28.5 27H46.5C47.3284 27 48 26.3284 48 25.5C48 24.6716 47.3284 24 46.5 24H28.5ZM23.5606 18.4394C24.1464 19.0251 24.1464 19.9749 23.5606 20.5606L16.5 27.6213L12.4393 23.5606C11.8536 22.9749 11.8536 22.0251 12.4393 21.4394C13.0251 20.8536 13.9749 20.8536 14.5607 21.4394L16.5 23.3787L21.4393 18.4394C22.0251 17.8536 22.9749 17.8536 23.5606 18.4394ZM28.5 36C27.6715 36 27 36.6716 27 37.5C27 38.3284 27.6715 39 28.5 39H46.5C47.3284 39 48 38.3284 48 37.5C48 36.6716 47.3284 36 46.5 36H28.5ZM27 43.5C27 42.6716 27.6715 42 28.5 42H46.5C47.3284 42 48 42.6716 48 43.5C48 44.3284 47.3284 45 46.5 45H28.5C27.6715 45 27 44.3284 27 43.5ZM21 36H13.5C12.6716 36 12 36.6716 12 37.5V45C12 45.8284 12.6716 46.5 13.5 46.5H21C21.8284 46.5 22.5 45.8284 22.5 45V37.5C22.5 36.6716 21.8284 36 21 36Z" fill="white"/>
<path fill-rule="evenodd" clip-rule="evenodd" d="M66 60L61.5 66L57 60V33H66V60Z" fill="white"/>
<path fill-rule="evenodd" clip-rule="evenodd" d="M60 22.5H63C64.6569 22.5 66 23.8431 66 25.5V31.5H57V25.5C57 23.8431 58.3431 22.5 60 22.5Z" fill="white"/>
</svg>
