<svg width="101" height="100" viewBox="0 0 101 100" fill="none" xmlns="http://www.w3.org/2000/svg">
<path d="M49.8446 3.15002C49.8446 3.42502 49.7446 3.75002 49.6446 3.85002C49.5196 3.95002 49.3196 4.85002 49.1446 5.82502C48.8446 7.60002 48.2696 10.8 47.8446 13C47.7196 13.625 47.4946 14.85 47.3196 15.75C47.1696 16.65 46.9446 17.7 46.8196 18.125C46.6946 18.525 46.5446 19.5 46.4446 20.25C46.3446 21 46.1946 21.95 46.0696 22.375C45.9446 22.775 45.6696 24.075 45.4446 25.25C45.2196 26.425 44.9446 27.775 44.8196 28.25C44.6946 28.725 44.5196 29.675 44.4446 30.375C44.3446 31.05 44.1946 31.95 44.0696 32.375C43.9446 32.775 43.6696 34.25 43.4446 35.625C43.1946 37 42.9196 38.45 42.7946 38.875C42.6946 39.275 42.5196 40.175 42.4446 40.875C42.3446 41.55 42.2196 42.3 42.1446 42.5C42.0446 42.7 41.8446 43.725 41.6446 44.75C41.4696 45.775 41.2196 47.125 41.0946 47.75C40.9696 48.375 40.7446 49.55 40.5696 50.375C40.2696 51.85 40.0196 52.225 38.0446 53.875C36.3946 55.275 30.4196 60.375 30.3196 60.475C30.1946 60.625 25.7946 64.425 24.3196 65.65C23.9696 65.95 23.1196 66.675 22.4446 67.275C21.7446 67.875 20.5196 68.925 19.6946 69.625C18.8946 70.3 17.6446 71.375 16.9446 72C15.8196 73 14.7446 73.925 12.5696 75.75C12.2196 76.05 11.6196 76.575 11.1946 76.95C10.7946 77.325 9.5446 78.375 8.4446 79.325C2.9946 84 2.4696 84.5 3.0696 84.5C3.3196 84.5 3.5946 84.4 3.6696 84.275C3.7696 84.15 4.2696 83.975 4.8196 83.875C5.3696 83.775 5.8696 83.625 5.9446 83.5C6.0196 83.375 6.5196 83.225 7.0696 83.125C7.6196 83.025 8.1196 82.85 8.2196 82.725C8.2946 82.6 8.5446 82.5 8.7946 82.5C9.0446 82.5 9.5946 82.325 9.9696 82.125C10.3696 81.925 10.8946 81.75 11.1446 81.75C11.3696 81.75 11.7696 81.65 12.0196 81.5C12.2446 81.375 14.0196 80.75 15.9446 80.125C17.8696 79.475 19.6696 78.875 19.9446 78.75C20.2196 78.65 21.5696 78.175 22.9446 77.75C24.3196 77.3 25.6696 76.85 25.9446 76.725C26.2196 76.625 28.0196 76 29.9446 75.375C31.8696 74.75 33.6196 74.125 33.8196 74.025C34.0446 73.9 34.5946 73.725 35.0696 73.625C35.5446 73.525 36.0696 73.35 36.1946 73.25C36.3446 73.15 36.7196 73 37.0696 72.925C37.6446 72.8 38.7946 72.425 39.9446 71.975C40.2196 71.875 41.5696 71.425 42.9446 70.975C44.3196 70.55 45.6696 70.1 45.9446 69.975C48.4196 68.875 50.3446 68.65 51.5696 69.25C52.2446 69.6 56.2196 71 56.5196 71C56.6946 71 57.0196 71.1 57.2696 71.225C57.4946 71.375 58.3696 71.7 59.1946 71.975C60.0196 72.25 61.6446 72.825 62.8196 73.275C63.9946 73.7 65.2946 74.15 65.6946 74.275C66.1196 74.4 66.6696 74.6 66.9446 74.725C67.2196 74.85 68.5196 75.325 69.8196 75.75C71.1196 76.175 72.4196 76.625 72.6946 76.75C72.9696 76.875 74.0946 77.25 75.1946 77.625C76.2946 78 77.5446 78.45 77.9446 78.625C78.3696 78.825 79.4946 79.225 80.4446 79.525C81.4196 79.825 82.2946 80.175 82.4446 80.3C82.5696 80.4 82.9196 80.5 83.1946 80.5C83.4946 80.5 83.7946 80.575 83.8946 80.65C84.0196 80.775 87.1946 81.925 90.3196 83C90.7946 83.15 91.4196 83.4 91.6946 83.5C91.9696 83.625 93.1446 84.025 94.3196 84.4C95.4946 84.775 96.5196 85.125 96.6196 85.175C96.7196 85.225 96.7446 85.1 96.6696 84.9C96.5946 84.675 96.4446 84.5 96.3446 84.5C96.2696 84.5 95.8446 84.175 95.4196 83.8C94.9946 83.425 93.8196 82.4 92.8196 81.5C91.7946 80.6 90.2946 79.25 89.4446 78.5C88.0946 77.25 85.2446 74.725 83.3946 73.075C83.0196 72.75 82.1946 72.05 81.5696 71.55C80.9696 71.05 80.1696 70.35 79.8196 70C79.4696 69.65 78.3446 68.65 77.3446 67.75C76.3196 66.85 75.3696 66 75.2196 65.875C75.0696 65.725 73.5946 64.45 71.9446 63C70.2946 61.55 68.8196 60.25 68.6696 60.125C68.5196 59.975 67.6446 59.2 66.6946 58.375C64.5946 56.5 64.0946 56.075 61.9696 54.15C61.0196 53.325 60.1446 52.55 60.0446 52.475C59.7196 52.275 59.3196 50.775 59.3196 49.725C59.3196 49.225 59.2446 48.75 59.1446 48.65C59.0196 48.55 58.7946 47.65 58.6196 46.675C58.0696 43.6 57.8446 42.4 57.5946 41.375C57.4446 40.825 57.3196 39.95 57.3196 39.45C57.3196 38.95 57.2196 38.475 57.0946 38.4C56.9696 38.325 56.7946 37.55 56.6946 36.7C56.5946 35.825 56.4446 34.775 56.3196 34.375C56.1946 33.95 55.9196 32.725 55.7196 31.625C55.4946 30.525 55.2696 29.275 55.1946 28.875C55.0946 28.45 54.8696 27.275 54.6946 26.25C54.4946 25.225 54.2196 23.875 54.0946 23.25C53.9696 22.625 53.7446 21.45 53.5946 20.625C53.4196 19.8 53.1946 18.625 53.0696 18C52.9446 17.375 52.7696 16.375 52.6696 15.75C52.5946 15.125 52.4696 14.45 52.3696 14.25C52.2946 14.05 52.0696 13.025 51.8946 12C51.7196 10.975 51.4446 9.62502 51.3196 9.00002C51.1946 8.37502 50.9446 7.02502 50.7696 6.00002C50.6196 4.97502 50.3946 4.07502 50.2946 4.00002C50.1946 3.92502 50.0696 3.60002 49.9946 3.25002C49.9196 2.75002 49.8696 2.72502 49.8446 3.15002Z" fill="#0094D9"/>
<path d="M38.0696 16.1752C37.7196 16.2502 37.3446 16.4002 37.2196 16.5252C37.0696 16.6502 36.7696 16.7502 36.5446 16.7502C35.4446 16.7502 28.9196 19.7002 26.9946 21.0752C26.3446 21.5252 26.2946 21.6502 26.4446 22.6002C26.5196 23.1502 26.6696 24.3752 26.7196 25.2752L26.8696 26.9252L25.7696 27.7502C24.4196 28.8002 20.9696 32.2752 19.8196 33.7252C18.4196 35.5002 18.3196 35.5502 17.3446 35.4002C16.8446 35.3252 15.5946 35.2002 14.5696 35.1002L12.6946 34.9502L12.0446 36.0502C11.1946 37.4252 10.2196 39.3502 9.69458 40.6252C9.46958 41.1752 9.19458 41.8002 9.09458 42.0002C8.99458 42.2002 8.64458 43.2252 8.34458 44.2502C8.04458 45.2752 7.69458 46.4002 7.56958 46.7502C7.44458 47.1002 7.29458 47.8002 7.21958 48.3252C7.09458 49.2502 7.11958 49.3002 8.94458 50.6252C9.96958 51.3752 10.9196 52.0002 11.0446 52.0002C11.5446 52.0002 11.7696 52.8752 11.5696 54.0002C11.2446 55.5752 11.2696 59.2252 11.5946 61.8002C11.7446 63.0002 11.7696 64.1502 11.6446 64.3252C11.5446 64.5252 10.6696 65.3502 9.69458 66.1502C7.59458 67.9002 7.54458 67.9502 7.74458 68.7502C8.21958 70.8002 9.99458 75.2502 10.3196 75.2502C10.5196 75.2502 11.7946 74.3002 12.1946 73.8502C12.3446 73.7002 13.6696 72.5252 15.1946 71.2252C16.6946 69.9252 18.0946 68.7002 18.3196 68.5002C18.5446 68.3002 19.3696 67.5752 20.1446 66.8752C21.7196 65.4752 21.7696 65.3252 21.1696 62.9752C20.8446 61.7502 20.7946 60.5002 20.8696 57.0252C20.9696 53.2002 21.0696 52.3002 21.6696 50.1752C22.0446 48.8002 22.4446 47.5252 22.5696 47.3002C22.6696 47.0502 23.2946 45.7752 23.9696 44.4252C24.6196 43.1002 25.2446 42.0002 25.3696 42.0002C25.4696 42.0002 25.5696 41.8752 25.5696 41.7252C25.5696 41.2752 28.1946 38.2002 30.1196 36.3752C32.3696 34.2502 37.3696 31.0002 38.3946 31.0002C38.5696 31.0002 39.3946 30.7502 40.1946 30.4252C41.6696 29.8502 41.6946 29.8252 41.8696 28.7252C41.9446 28.1252 42.2196 26.6002 42.4446 25.3752C42.6696 24.1252 42.9196 22.4752 42.9946 21.6752C43.1196 20.0752 42.9696 19.7752 40.8446 17.5002C40.2696 16.9002 39.8196 16.3002 39.8196 16.2002C39.8196 16.0002 39.1446 15.9752 38.0696 16.1752ZM59.1196 16.7002C58.1696 17.7252 56.7696 19.4252 56.3446 20.1252C56.0446 20.6002 56.0196 20.9502 56.2696 22.0502C57.0196 25.6502 57.3196 27.3252 57.3196 28.0002C57.3196 29.2502 57.7946 29.9002 58.9196 30.2502C59.4696 30.4502 60.0446 30.6752 60.1946 30.8002C60.3196 30.9002 60.5946 31.0002 60.7946 31.0002C61.1446 31.0002 64.3196 32.4752 64.5696 32.7502C64.6446 32.8502 65.0946 33.1502 65.5696 33.4502C66.0446 33.7502 66.7446 34.2502 67.1196 34.5502C67.4946 34.8752 68.4446 35.6752 69.2446 36.3752C70.0696 37.0502 71.1696 38.1752 71.7196 38.8502C72.2446 39.5002 72.8946 40.2252 73.1446 40.4502C73.3696 40.6752 73.5696 40.9502 73.5696 41.0752C73.5696 41.2002 73.8446 41.6502 74.1696 42.0752C74.9946 43.1752 77.0696 47.3752 77.0696 48.0002C77.0696 48.1252 77.1696 48.4502 77.2946 48.7002C78.8446 51.7752 79.1446 60.3002 77.8446 64.5002C77.5696 65.3752 77.5696 65.3752 79.1696 66.8752C80.0446 67.7002 81.2946 68.8252 81.9696 69.3752C83.6196 70.7502 85.6196 72.5002 86.0696 73.0002C86.5696 73.5252 88.7196 75.2502 88.8696 75.2502C88.9446 75.2502 89.0696 75.0502 89.1446 74.8252C89.2196 74.5752 89.5196 73.7502 89.8196 73.0002C90.6946 70.7502 91.3196 68.7252 91.3196 68.1252C91.3196 67.7752 90.8696 67.2002 90.0196 66.4752C89.2946 65.8752 88.4696 65.1752 88.1946 64.9502C87.6946 64.5252 87.6946 64.2752 87.7446 58.7002C87.7946 55.5002 87.8196 52.6752 87.8196 52.4252C87.8196 52.2002 87.9446 52.0002 88.1196 52.0002C88.2696 52.0002 88.9696 51.5752 89.6696 51.0502C90.3696 50.5252 91.1446 50.0252 91.3946 49.9252C91.9196 49.7252 91.9696 48.5252 91.4696 46.9752C91.2696 46.3752 90.9196 45.2002 90.6696 44.3752C90.4446 43.5502 90.1446 42.7002 90.0446 42.5002C89.9446 42.3002 89.6696 41.6752 89.4446 41.1252C88.9196 39.8752 87.4196 36.9002 86.7696 35.8002C86.3446 35.1002 86.1446 35.0002 85.2696 35.0002C84.7196 35.0002 83.5196 35.1252 82.6196 35.3002C81.0446 35.6002 80.9946 35.5752 80.5196 34.9752C78.1196 31.9752 75.3696 29.1502 73.4446 27.7252C72.3196 26.9002 72.3196 26.8502 72.4446 25.7502C72.5196 25.1252 72.6446 23.9252 72.7196 23.0752L72.8696 21.5252L71.8946 20.9252C70.0196 19.7752 66.0946 17.8752 64.9446 17.6002C64.5196 17.5002 64.0946 17.3502 63.9446 17.2502C63.6696 17.0752 61.6446 16.4252 60.4946 16.1502C59.9446 16.0252 59.6696 16.1252 59.1196 16.7002ZM23.8946 82.1502C21.4946 82.6752 19.5446 84.1002 18.5446 86.0502C17.8946 87.3502 17.8946 90.4002 18.5446 91.7002C19.1696 92.9252 20.3446 94.1252 21.4946 94.7252C23.7196 95.8502 27.6696 95.9002 30.1446 94.8252C31.0446 94.4252 31.0696 94.4002 31.0696 93.0752C31.0696 92.3502 30.9946 91.7502 30.9196 91.7502C30.8446 91.7502 30.4196 91.9002 29.9946 92.1002C26.7946 93.5252 24.0696 93.2252 22.1696 91.2252C21.5196 90.5502 21.4446 90.3002 21.4446 88.8752C21.4446 86.9002 21.9196 86.1502 23.8196 85.1752C25.4946 84.3252 26.7696 84.3002 29.0196 85.1252C29.9696 85.4752 30.8196 85.7502 30.9196 85.7502C30.9946 85.7502 31.0696 85.2002 31.0696 84.5502C31.0696 82.9752 30.7196 82.7002 28.2446 82.1752C26.0446 81.7002 25.9946 81.7002 23.8946 82.1502ZM34.1946 82.2002C34.1196 82.2752 34.0696 85.3002 34.0696 88.9252V95.5252L35.6446 95.4502L37.1946 95.3752L37.2696 91.4252C37.2946 89.2752 37.4196 87.5002 37.5446 87.5002C37.7196 87.5002 39.1196 88.9502 40.4946 90.5752C41.3696 91.6252 41.3446 91.6252 43.8196 88.7502L45.1946 87.1502L45.3196 91.2752L45.4446 95.3752L47.0196 95.4502L48.5696 95.5252V82.2502L47.6446 82.2252C47.1196 82.2252 46.4946 82.1752 46.2696 82.1252C45.8696 82.0502 45.4696 82.4752 42.1196 86.2502L41.3446 87.1252L40.0196 85.6252C36.8946 82.0752 37.0446 82.2252 35.6196 82.1502C34.9196 82.1002 34.2696 82.1502 34.1946 82.2002ZM52.1446 82.1752C51.8946 82.2752 51.8196 83.8502 51.8196 88.9002V95.5002H53.4196C54.6446 95.5002 55.0446 95.4002 55.1696 95.1002C55.2446 94.8752 55.3196 92.4002 55.3196 89.6002V84.5002H62.0696V95.5002H65.3196V88.9002C65.3196 83.5752 65.2446 82.2752 64.9696 82.1752C64.5446 82.0002 52.5446 82.0002 52.1446 82.1752ZM68.8696 82.2002C68.6446 82.3752 68.5696 83.8752 68.6196 88.9002L68.6946 95.3752L70.2696 95.4502L71.8196 95.5252L71.8696 93.7002C71.8696 92.7002 71.8696 90.3502 71.8446 88.5002C71.8196 86.6502 71.8946 84.9752 72.0196 84.8002C72.1696 84.5752 73.0446 84.5002 75.4696 84.5502L78.6946 84.6252L78.7696 90.0502L78.8196 95.5002H82.0696L82.1196 91.6752C82.1946 84.7752 82.1196 82.4502 81.8196 82.2502C81.4196 82.0002 69.2696 81.9752 68.8696 82.2002Z" fill="#0094D9"/>
</svg>
